<?xml version="1.0" encoding="UTF-8" standalone="no"?>
<!-- Created with Inkscape (http://www.inkscape.org/) -->

<svg
   xmlns:dc="http://purl.org/dc/elements/1.1/"
   xmlns:cc="http://creativecommons.org/ns#"
   xmlns:rdf="http://www.w3.org/1999/02/22-rdf-syntax-ns#"
   xmlns:svg="http://www.w3.org/2000/svg"
   xmlns="http://www.w3.org/2000/svg"
   xmlns:sodipodi="http://sodipodi.sourceforge.net/DTD/sodipodi-0.dtd"
   xmlns:inkscape="http://www.inkscape.org/namespaces/inkscape"
   width="485"
   height="227"
   id="svg2"
   version="1.1"
   inkscape:version="0.91 r13725"
   sodipodi:docname="intro.svg"
   inkscape:export-filename="/home/fede/Data-xps/jobapps/DeepMind/talk/remark/figs/intro2/intro-c.png"
   inkscape:export-xdpi="300"
   inkscape:export-ydpi="300">
  <sodipodi:namedview
     id="base"
     pagecolor="#ffffff"
     bordercolor="#666666"
     borderopacity="1.0"
     inkscape:pageopacity="0.0"
     inkscape:pageshadow="2"
     inkscape:zoom="3.959798"
     inkscape:cx="223.01566"
     inkscape:cy="114.95999"
     inkscape:document-units="px"
     inkscape:current-layer="layer1"
     showgrid="false"
     units="in"
     inkscape:window-width="3100"
     inkscape:window-height="1749"
     inkscape:window-x="100"
     inkscape:window-y="51"
     inkscape:window-maximized="1" />
  <defs
     id="defs4">
    <marker
       inkscape:isstock="true"
       style="overflow:visible"
       id="marker14632"
       refX="0"
       refY="0"
       orient="auto"
       inkscape:stockid="TriangleOutL">
      <path
         transform="scale(0.8,0.8)"
         style="fill:#000000;fill-opacity:1;fill-rule:evenodd;stroke:#000000;stroke-width:1pt;stroke-opacity:1"
         d="m 5.77,0 -8.65,5 0,-10 8.65,5 z"
         id="path14634"
         inkscape:connector-curvature="0" />
    </marker>
    <marker
       inkscape:stockid="TriangleOutL"
       orient="auto"
       refY="0.0"
       refX="0.0"
       id="TriangleOutL"
       style="overflow:visible"
       inkscape:isstock="true">
      <path
         id="path4455"
         d="M 5.77,0.0 L -2.88,5.0 L -2.88,-5.0 L 5.77,0.0 z "
         style="fill-rule:evenodd;stroke:#000000;stroke-width:1.0pt"
         transform="scale(0.8)" />
    </marker>
    <marker
       inkscape:isstock="true"
       style="overflow:visible"
       id="marker5865"
       refX="0.0"
       refY="0.0"
       orient="auto"
       inkscape:stockid="TriangleOutL">
      <path
         transform="scale(0.8)"
         style="fill-rule:evenodd;stroke:#000000;stroke-width:1pt;stroke-opacity:1;fill:#520000;fill-opacity:1"
         d="M 5.77,0.0 L -2.88,5.0 L -2.88,-5.0 L 5.77,0.0 z "
         id="path5867" />
    </marker>
    <marker
       inkscape:isstock="true"
       style="overflow:visible"
       id="marker5693"
       refX="0.0"
       refY="0.0"
       orient="auto"
       inkscape:stockid="TriangleOutL">
      <path
         transform="scale(0.8)"
         style="fill-rule:evenodd;stroke:#000000;stroke-width:1pt;stroke-opacity:1;fill:#520000;fill-opacity:1"
         d="M 5.77,0.0 L -2.88,5.0 L -2.88,-5.0 L 5.77,0.0 z "
         id="path5695" />
    </marker>
    <marker
       inkscape:stockid="TriangleOutM"
       orient="auto"
       refY="0.0"
       refX="0.0"
       id="TriangleOutM"
       style="overflow:visible"
       inkscape:isstock="true">
      <path
         id="path4458"
         d="M 5.77,0.0 L -2.88,5.0 L -2.88,-5.0 L 5.77,0.0 z "
         style="fill-rule:evenodd;stroke:#000000;stroke-width:1pt;stroke-opacity:1;fill:#000000;fill-opacity:1"
         transform="scale(0.4)" />
    </marker>
    <marker
       inkscape:stockid="Arrow1Mend"
       orient="auto"
       refY="0"
       refX="0"
       id="Arrow1Mend"
       style="overflow:visible">
      <path
         id="path4304"
         d="M 0,0 5,-5 -12.5,0 5,5 0,0 z"
         style="fill-rule:evenodd;stroke:#000000;stroke-width:1pt;marker-start:none"
         transform="matrix(-0.4,0,0,-0.4,-4,0)" />
    </marker>
    <marker
       inkscape:stockid="Arrow2Send"
       orient="auto"
       refY="0"
       refX="0"
       id="Arrow2Send"
       style="overflow:visible">
      <path
         id="path4328"
         style="font-size:12px;fill-rule:evenodd;stroke-width:0.625;stroke-linejoin:round"
         d="M 8.7185878,4.0337352 -2.2072895,0.01601326 8.7185884,-4.0017078 c -1.7454984,2.3720609 -1.7354408,5.6174519 -6e-7,8.035443 z"
         transform="matrix(-0.3,0,0,-0.3,0.69,0)" />
    </marker>
    <marker
       style="overflow:visible"
       id="Arrow1Lend"
       refX="0"
       refY="0"
       orient="auto"
       inkscape:stockid="Arrow1Lend">
      <path
         transform="matrix(-0.8,0,0,-0.8,-10,0)"
         style="fill-rule:evenodd;stroke:#000000;stroke-width:1pt;marker-start:none"
         d="M 0,0 5,-5 -12.5,0 5,5 0,0 z"
         id="path5232" />
    </marker>
    <marker
       style="overflow:visible"
       id="Arrow2Lend"
       refX="0"
       refY="0"
       orient="auto"
       inkscape:stockid="Arrow2Lend">
      <path
         transform="matrix(-1.1,0,0,-1.1,-1.1,0)"
         d="M 8.7185878,4.0337352 -2.2072895,0.01601326 8.7185884,-4.0017078 c -1.7454984,2.3720609 -1.7354408,5.6174519 -6e-7,8.035443 z"
         style="font-size:12px;fill-rule:evenodd;stroke-width:0.625;stroke-linejoin:round"
         id="path5250" />
    </marker>
    <linearGradient
       id="linearGradient5126">
      <stop
         id="stop5128"
         offset="0"
         style="stop-color:#0075d7;stop-opacity:1;" />
      <stop
         id="stop5130"
         offset="1"
         style="stop-color:#00d7b6;stop-opacity:0;" />
    </linearGradient>
    <linearGradient
       id="linearGradient3664">
      <stop
         id="stop3666"
         offset="0"
         style="stop-color:#00d7b6;stop-opacity:1;" />
      <stop
         id="stop3668"
         offset="1"
         style="stop-color:#00d7b6;stop-opacity:0;" />
    </linearGradient>
    <inkscape:perspective
       id="perspective10"
       inkscape:persp3d-origin="372.04724 : 350.78739 : 1"
       inkscape:vp_z="744.09448 : 526.18109 : 1"
       inkscape:vp_y="0 : 1000 : 0"
       inkscape:vp_x="0 : 526.18109 : 1"
       sodipodi:type="inkscape:persp3d" />
    <inkscape:perspective
       sodipodi:type="inkscape:persp3d"
       inkscape:vp_x="0 : 0.5 : 1"
       inkscape:vp_y="0 : 1000 : 0"
       inkscape:vp_z="1 : 0.5 : 1"
       inkscape:persp3d-origin="0.5 : 0.33333333 : 1"
       id="perspective2832" />
    <inkscape:perspective
       sodipodi:type="inkscape:persp3d"
       inkscape:vp_x="0 : 0.5 : 1"
       inkscape:vp_y="0 : 1000 : 0"
       inkscape:vp_z="1 : 0.5 : 1"
       inkscape:persp3d-origin="0.5 : 0.33333333 : 1"
       id="perspective2868" />
    <filter
       color-interpolation-filters="sRGB"
       y="-0.25"
       x="-0.25"
       height="1.5"
       width="1.5"
       inkscape:label="Drop shadow"
       id="filter5204">
      <feGaussianBlur
         result="blur"
         stdDeviation="1.000000"
         in="SourceAlpha"
         id="feGaussianBlur5206" />
      <feColorMatrix
         values="1 0 0 0 0 0 1 0 0 0 0 0 1 0 0 0 0 0 0.500000 0 "
         type="matrix"
         result="bluralpha"
         id="feColorMatrix5208" />
      <feOffset
         result="offsetBlur"
         dy="-5.000000"
         dx="5.000000"
         in="bluralpha"
         id="feOffset5210" />
      <feMerge
         id="feMerge5212">
        <feMergeNode
           in="offsetBlur"
           id="feMergeNode5214" />
        <feMergeNode
           in="SourceGraphic"
           id="feMergeNode5216" />
      </feMerge>
    </filter>
    <inkscape:perspective
       sodipodi:type="inkscape:persp3d"
       inkscape:vp_x="0 : 0.5 : 1"
       inkscape:vp_y="0 : 1000 : 0"
       inkscape:vp_z="1 : 0.5 : 1"
       inkscape:persp3d-origin="0.5 : 0.33333333 : 1"
       id="perspective6056" />
    <marker
       style="overflow:visible"
       id="Arrow2Lend-9"
       refX="0"
       refY="0"
       orient="auto"
       inkscape:stockid="Arrow2Lend">
      <path
         transform="matrix(-1.1,0,0,-1.1,-1.1,0)"
         d="M 8.7185878,4.0337352 -2.2072895,0.01601326 8.7185884,-4.0017078 c -1.7454984,2.3720609 -1.7354408,5.6174519 -6e-7,8.035443 z"
         style="font-size:12px;fill-rule:evenodd;stroke-width:0.625;stroke-linejoin:round"
         id="path5250-0" />
    </marker>
    <inkscape:perspective
       sodipodi:type="inkscape:persp3d"
       inkscape:vp_x="0 : 0.5 : 1"
       inkscape:vp_y="0 : 1000 : 0"
       inkscape:vp_z="1 : 0.5 : 1"
       inkscape:persp3d-origin="0.5 : 0.33333333 : 1"
       id="perspective6105" />
    <inkscape:perspective
       sodipodi:type="inkscape:persp3d"
       inkscape:vp_x="0 : 0.5 : 1"
       inkscape:vp_y="0 : 1000 : 0"
       inkscape:vp_z="1 : 0.5 : 1"
       inkscape:persp3d-origin="0.5 : 0.33333333 : 1"
       id="perspective6133" />
    <marker
       style="overflow:visible"
       id="Arrow2Lend-2"
       refX="0"
       refY="0"
       orient="auto"
       inkscape:stockid="Arrow2Lend">
      <path
         transform="matrix(-1.1,0,0,-1.1,-1.1,0)"
         d="M 8.7185878,4.0337352 -2.2072895,0.01601326 8.7185884,-4.0017078 c -1.7454984,2.3720609 -1.7354408,5.6174519 -6e-7,8.035443 z"
         style="font-size:12px;fill-rule:evenodd;stroke-width:0.625;stroke-linejoin:round"
         id="path5250-8" />
    </marker>
    <inkscape:perspective
       sodipodi:type="inkscape:persp3d"
       inkscape:vp_x="0 : 0.5 : 1"
       inkscape:vp_y="0 : 1000 : 0"
       inkscape:vp_z="1 : 0.5 : 1"
       inkscape:persp3d-origin="0.5 : 0.33333333 : 1"
       id="perspective2863" />
    <marker
       style="overflow:visible"
       id="Arrow2Lend-5"
       refX="0"
       refY="0"
       orient="auto"
       inkscape:stockid="Arrow2Lend">
      <path
         transform="matrix(-1.1,0,0,-1.1,-1.1,0)"
         d="M 8.7185878,4.0337352 -2.2072895,0.01601326 8.7185884,-4.0017078 c -1.7454984,2.3720609 -1.7354408,5.6174519 -6e-7,8.035443 z"
         style="font-size:12px;fill-rule:evenodd;stroke-width:0.625;stroke-linejoin:round"
         id="path5250-3" />
    </marker>
    <inkscape:perspective
       sodipodi:type="inkscape:persp3d"
       inkscape:vp_x="0 : 0.5 : 1"
       inkscape:vp_y="0 : 1000 : 0"
       inkscape:vp_z="1 : 0.5 : 1"
       inkscape:persp3d-origin="0.5 : 0.33333333 : 1"
       id="perspective2900" />
    <marker
       style="overflow:visible"
       id="Arrow2Lend-25"
       refX="0"
       refY="0"
       orient="auto"
       inkscape:stockid="Arrow2Lend">
      <path
         transform="matrix(-1.1,0,0,-1.1,-1.1,0)"
         d="M 8.7185878,4.0337352 -2.2072895,0.01601326 8.7185884,-4.0017078 c -1.7454984,2.3720609 -1.7354408,5.6174519 -6e-7,8.035443 z"
         style="font-size:12px;fill-rule:evenodd;stroke-width:0.625;stroke-linejoin:round"
         id="path5250-4" />
    </marker>
    <inkscape:perspective
       sodipodi:type="inkscape:persp3d"
       inkscape:vp_x="0 : 0.5 : 1"
       inkscape:vp_y="0 : 1000 : 0"
       inkscape:vp_z="1 : 0.5 : 1"
       inkscape:persp3d-origin="0.5 : 0.33333333 : 1"
       id="perspective3930" />
    <inkscape:perspective
       sodipodi:type="inkscape:persp3d"
       inkscape:vp_x="0 : 0.5 : 1"
       inkscape:vp_y="0 : 1000 : 0"
       inkscape:vp_z="1 : 0.5 : 1"
       inkscape:persp3d-origin="0.5 : 0.33333333 : 1"
       id="perspective2870" />
    <inkscape:perspective
       sodipodi:type="inkscape:persp3d"
       inkscape:vp_x="0 : 0.5 : 1"
       inkscape:vp_y="0 : 1000 : 0"
       inkscape:vp_z="1 : 0.5 : 1"
       inkscape:persp3d-origin="0.5 : 0.33333333 : 1"
       id="perspective2913" />
    <inkscape:perspective
       sodipodi:type="inkscape:persp3d"
       inkscape:vp_x="0 : 0.5 : 1"
       inkscape:vp_y="0 : 1000 : 0"
       inkscape:vp_z="1 : 0.5 : 1"
       inkscape:persp3d-origin="0.5 : 0.33333333 : 1"
       id="perspective2945" />
    <inkscape:perspective
       sodipodi:type="inkscape:persp3d"
       inkscape:vp_x="0 : 0.5 : 1"
       inkscape:vp_y="0 : 1000 : 0"
       inkscape:vp_z="1 : 0.5 : 1"
       inkscape:persp3d-origin="0.5 : 0.33333333 : 1"
       id="perspective2911" />
    <marker
       style="overflow:visible"
       id="Arrow2Lend-1"
       refX="0"
       refY="0"
       orient="auto"
       inkscape:stockid="Arrow2Lend">
      <path
         transform="matrix(-1.1,0,0,-1.1,-1.1,0)"
         d="M 8.7185878,4.0337352 -2.2072895,0.01601326 8.7185884,-4.0017078 c -1.7454984,2.3720609 -1.7354408,5.6174519 -6e-7,8.035443 z"
         style="font-size:12px;fill-rule:evenodd;stroke-width:0.625;stroke-linejoin:round"
         id="path5250-1" />
    </marker>
    <marker
       style="overflow:visible"
       id="Arrow2Lend5"
       refX="0"
       refY="0"
       orient="auto"
       inkscape:stockid="Arrow2Lend5">
      <path
         transform="matrix(-1.1,0,0,-1.1,-1.1,0)"
         d="M 8.7185878,4.0337352 -2.2072895,0.01601326 8.7185884,-4.0017078 c -1.7454984,2.3720609 -1.7354408,5.6174519 -6e-7,8.035443 z"
         style="font-size:12px;fill:#ed0007;fill-rule:evenodd;stroke:#ed0007;stroke-width:0.625;stroke-linejoin:round"
         id="path3788" />
    </marker>
    <marker
       inkscape:stockid="Arrow1MendR"
       orient="auto"
       refY="0"
       refX="0"
       id="Arrow1MendR"
       style="overflow:visible">
      <path
         id="path5010"
         d="M 0,0 5,-5 -12.5,0 5,5 0,0 z"
         style="fill:#ed0007;fill-rule:evenodd;stroke:#ed0007;stroke-width:1pt;marker-start:none"
         transform="matrix(-0.4,0,0,-0.4,-4,0)" />
    </marker>
    <marker
       inkscape:stockid="Arrow1MendRR"
       orient="auto"
       refY="0"
       refX="0"
       id="Arrow1MendRR"
       style="overflow:visible">
      <path
         id="path5175"
         d="M 0,0 5,-5 -12.5,0 5,5 0,0 z"
         style="fill:#1000e4;fill-rule:evenodd;stroke:#1000e4;stroke-width:1pt;marker-start:none"
         transform="matrix(-0.4,0,0,-0.4,-4,0)" />
    </marker>
    <inkscape:perspective
       id="perspective5298"
       inkscape:persp3d-origin="0.5 : 0.33333333 : 1"
       inkscape:vp_z="1 : 0.5 : 1"
       inkscape:vp_y="0 : 1000 : 0"
       inkscape:vp_x="0 : 0.5 : 1"
       sodipodi:type="inkscape:persp3d" />
    <marker
       inkscape:stockid="Arrow1MendRR"
       orient="auto"
       refY="0"
       refX="0"
       id="Arrow1MendRR-2"
       style="overflow:visible">
      <path
         id="path5175-2"
         d="M 0,0 5,-5 -12.5,0 5,5 0,0 z"
         style="fill:#1000e4;fill-rule:evenodd;stroke:#1000e4;stroke-width:1pt;marker-start:none"
         transform="matrix(-0.4,0,0,-0.4,-4,0)" />
    </marker>
    <inkscape:perspective
       id="perspective5326"
       inkscape:persp3d-origin="0.5 : 0.33333333 : 1"
       inkscape:vp_z="1 : 0.5 : 1"
       inkscape:vp_y="0 : 1000 : 0"
       inkscape:vp_x="0 : 0.5 : 1"
       sodipodi:type="inkscape:persp3d" />
    <marker
       inkscape:stockid="Arrow1MendRR"
       orient="auto"
       refY="0"
       refX="0"
       id="Arrow1MendRR-6"
       style="overflow:visible">
      <path
         id="path5175-5"
         d="M 0,0 5,-5 -12.5,0 5,5 0,0 z"
         style="fill:#1000e4;fill-rule:evenodd;stroke:#1000e4;stroke-width:1pt;marker-start:none"
         transform="matrix(-0.4,0,0,-0.4,-4,0)" />
    </marker>
    <inkscape:perspective
       id="perspective5400"
       inkscape:persp3d-origin="0.5 : 0.33333333 : 1"
       inkscape:vp_z="1 : 0.5 : 1"
       inkscape:vp_y="0 : 1000 : 0"
       inkscape:vp_x="0 : 0.5 : 1"
       sodipodi:type="inkscape:persp3d" />
    <inkscape:perspective
       id="perspective5422"
       inkscape:persp3d-origin="0.5 : 0.33333333 : 1"
       inkscape:vp_z="1 : 0.5 : 1"
       inkscape:vp_y="0 : 1000 : 0"
       inkscape:vp_x="0 : 0.5 : 1"
       sodipodi:type="inkscape:persp3d" />
    <inkscape:perspective
       id="perspective5444"
       inkscape:persp3d-origin="0.5 : 0.33333333 : 1"
       inkscape:vp_z="1 : 0.5 : 1"
       inkscape:vp_y="0 : 1000 : 0"
       inkscape:vp_x="0 : 0.5 : 1"
       sodipodi:type="inkscape:persp3d" />
    <inkscape:perspective
       id="perspective5466"
       inkscape:persp3d-origin="0.5 : 0.33333333 : 1"
       inkscape:vp_z="1 : 0.5 : 1"
       inkscape:vp_y="0 : 1000 : 0"
       inkscape:vp_x="0 : 0.5 : 1"
       sodipodi:type="inkscape:persp3d" />
    <inkscape:perspective
       id="perspective2964"
       inkscape:persp3d-origin="0.5 : 0.33333333 : 1"
       inkscape:vp_z="1 : 0.5 : 1"
       inkscape:vp_y="0 : 1000 : 0"
       inkscape:vp_x="0 : 0.5 : 1"
       sodipodi:type="inkscape:persp3d" />
    <marker
       inkscape:stockid="Arrow1MendRR"
       orient="auto"
       refY="0"
       refX="0"
       id="Arrow1MendRR-20"
       style="overflow:visible">
      <path
         id="path5175-7"
         d="M 0,0 5,-5 -12.5,0 5,5 0,0 z"
         style="fill:#1000e4;fill-rule:evenodd;stroke:#1000e4;stroke-width:1pt;marker-start:none"
         transform="matrix(-0.4,0,0,-0.4,-4,0)" />
    </marker>
    <inkscape:perspective
       id="perspective2992"
       inkscape:persp3d-origin="0.5 : 0.33333333 : 1"
       inkscape:vp_z="1 : 0.5 : 1"
       inkscape:vp_y="0 : 1000 : 0"
       inkscape:vp_x="0 : 0.5 : 1"
       sodipodi:type="inkscape:persp3d" />
    <filter
       color-interpolation-filters="sRGB"
       y="-0.25"
       x="-0.25"
       height="1.5"
       width="1.5"
       inkscape:label="Drop shadow"
       id="filter5204-6">
      <feGaussianBlur
         result="blur"
         stdDeviation="1.000000"
         in="SourceAlpha"
         id="feGaussianBlur5206-5" />
      <feColorMatrix
         values="1 0 0 0 0 0 1 0 0 0 0 0 1 0 0 0 0 0 0.500000 0 "
         type="matrix"
         result="bluralpha"
         id="feColorMatrix5208-3" />
      <feOffset
         result="offsetBlur"
         dy="-5.000000"
         dx="5.000000"
         in="bluralpha"
         id="feOffset5210-7" />
      <feMerge
         id="feMerge5212-6">
        <feMergeNode
           in="offsetBlur"
           id="feMergeNode5214-9" />
        <feMergeNode
           in="SourceGraphic"
           id="feMergeNode5216-7" />
      </feMerge>
    </filter>
    <marker
       inkscape:stockid="Arrow1MendRR"
       orient="auto"
       refY="0"
       refX="0"
       id="Arrow1MendRR-8"
       style="overflow:visible">
      <path
         inkscape:connector-curvature="0"
         id="path5175-6"
         d="M 0,0 5,-5 -12.5,0 5,5 0,0 Z"
         style="fill:#1000e4;fill-rule:evenodd;stroke:#1000e4;stroke-width:1pt;marker-start:none"
         transform="matrix(-0.4,0,0,-0.4,-4,0)" />
    </marker>
    <marker
       inkscape:stockid="Arrow1MendRR"
       orient="auto"
       refY="0"
       refX="0"
       id="marker4344"
       style="overflow:visible">
      <path
         inkscape:connector-curvature="0"
         id="path4346"
         d="M 0,0 5,-5 -12.5,0 5,5 0,0 Z"
         style="fill:#1000e4;fill-rule:evenodd;stroke:#1000e4;stroke-width:1pt;marker-start:none"
         transform="matrix(-0.4,0,0,-0.4,-4,0)" />
    </marker>
    <marker
       inkscape:stockid="Arrow1MendRR"
       orient="auto"
       refY="0"
       refX="0"
       id="marker4348"
       style="overflow:visible">
      <path
         inkscape:connector-curvature="0"
         id="path4350"
         d="M 0,0 5,-5 -12.5,0 5,5 0,0 Z"
         style="fill:#1000e4;fill-rule:evenodd;stroke:#1000e4;stroke-width:1pt;marker-start:none"
         transform="matrix(-0.4,0,0,-0.4,-4,0)" />
    </marker>
  </defs>
  <metadata
     id="metadata7">
    <rdf:RDF>
      <cc:Work
         rdf:about="">
        <dc:format>image/svg+xml</dc:format>
        <dc:type
           rdf:resource="http://purl.org/dc/dcmitype/StillImage" />
        <dc:title />
      </cc:Work>
    </rdf:RDF>
  </metadata>
  <g
     transform="translate(0,-825.35975)"
     id="layer1"
     inkscape:groupmode="layer"
     inkscape:label="Layer 1">
    <text
       id="text2818"
       y="864.48328"
       x="72.395767"
       style="font-size:18.9109211px;font-style:normal;font-weight:normal;fill:#000000;fill-opacity:1;stroke:none;font-family:Bitstream Vera Sans"
       xml:space="preserve"
       sodipodi:linespacing="125%"
       inkscape:export-xdpi="300"
       inkscape:export-ydpi="300"><tspan
         style="font-style:normal;font-variant:normal;font-weight:normal;font-stretch:normal;text-align:center;text-anchor:middle;font-family:'Yanone Kaffeesatz';-inkscape-font-specification:'Yanone Kaffeesatz, Normal';font-size:22.5px;writing-mode:lr;line-height:125%"
         y="864.48328"
         x="72.395767"
         id="tspan2820"
         sodipodi:role="line">Sensory</tspan><tspan
         style="font-style:normal;font-variant:normal;font-weight:normal;font-stretch:normal;text-align:center;text-anchor:middle;font-family:'Yanone Kaffeesatz';-inkscape-font-specification:'Yanone Kaffeesatz, Normal';font-size:22.5px;writing-mode:lr;line-height:125%"
         id="tspan2822"
         y="888.12195"
         x="72.395767"
         sodipodi:role="line">input</tspan></text>
    <text
       id="text2818-9"
       y="864.3678"
       x="413.78763"
       style="font-size:18.9109211px;font-style:normal;font-weight:normal;fill:#000000;fill-opacity:1;stroke:none;font-family:Bitstream Vera Sans"
       xml:space="preserve"
       sodipodi:linespacing="125%"
       inkscape:export-xdpi="300"
       inkscape:export-ydpi="300"><tspan
         style="font-style:normal;font-variant:normal;font-weight:normal;font-stretch:normal;text-align:center;text-anchor:middle;font-family:'Yanone Kaffeesatz';-inkscape-font-specification:'Yanone Kaffeesatz, Normal';font-size:22.5px;writing-mode:lr;line-height:125%"
         id="tspan2854"
         y="864.3678"
         x="416.41003"
         sodipodi:role="line">Motor </tspan><tspan
         style="font-style:normal;font-variant:normal;font-weight:normal;font-stretch:normal;text-align:center;text-anchor:middle;font-family:'Yanone Kaffeesatz';-inkscape-font-specification:'Yanone Kaffeesatz, Normal';font-size:22.5px;writing-mode:lr;line-height:125%"
         id="tspan2858"
         y="888.00647"
         x="413.78763"
         sodipodi:role="line">output</tspan></text>
    <text
       id="text2818-0"
       y="866.13611"
       x="245.78326"
       style="font-size:22.5px;font-style:normal;font-weight:normal;fill:#000000;fill-opacity:1;stroke:none;font-family:'Yanone Kaffeesatz';-inkscape-font-specification:'Yanone Kaffeesatz, Normal';font-stretch:normal;font-variant:normal;text-anchor:middle;text-align:center;writing-mode:lr;line-height:125%;"
       xml:space="preserve"
       sodipodi:linespacing="125%"
       inkscape:export-xdpi="300"
       inkscape:export-ydpi="300"><tspan
         style="font-style:normal;font-variant:normal;font-weight:normal;font-stretch:normal;text-align:center;text-anchor:middle;font-family:'Yanone Kaffeesatz';-inkscape-font-specification:'Yanone Kaffeesatz, Normal';font-size:22.5px;writing-mode:lr;line-height:125%;"
         id="tspan2822-6"
         y="866.13611"
         x="245.78326"
         sodipodi:role="line">Decision</tspan><tspan
         id="tspan2890"
         style="font-style:normal;font-variant:normal;font-weight:normal;font-stretch:normal;text-align:center;text-anchor:middle;font-family:'Yanone Kaffeesatz';-inkscape-font-specification:'Yanone Kaffeesatz, Normal';font-size:22.5px;writing-mode:lr;line-height:125%;"
         y="889.77478"
         x="245.78326"
         sodipodi:role="line">Process</tspan></text>
    <text
       transform="translate(0,791.35975)"
       id="text2899"
       y="67.428574"
       x="64.285713"
       style="font-size:40px;font-style:normal;font-weight:normal;fill:#000000;fill-opacity:1;stroke:none;font-family:Bitstream Vera Sans"
       xml:space="preserve"><tspan
         id="tspan2901"
         sodipodi:role="line"
         x="64.285713"
         y="67.428574" /></text>
    <text
       xml:space="preserve"
       style="font-size:40px;font-style:normal;font-weight:normal;fill:#000000;fill-opacity:1;stroke:none;font-family:Bitstream Vera Sans"
       x="58.588848"
       y="187.63451"
       id="text2936"
       transform="translate(0,828.35975)"><tspan
         sodipodi:role="line"
         id="tspan2938"
         x="58.588848"
         y="187.63451" /></text>
    <path
       inkscape:connector-curvature="0"
       id="path48"
       style="fill:#231f20;fill-opacity:1;fill-rule:nonzero;stroke:none"
       d="m 193.87985,873.09123 c -3.26286,5.25213 -9.54944,4.78938 -14.26754,6.36398 -1.68177,-0.52837 -3.63391,1.04646 -4.92458,0.27497 5.71527,-2.95709 12.91428,-0.96398 17.68708,-7.04867 -1.87668,-0.62306 -3.53964,-2.30935 -5.1233,-2.57043 0.53787,1.10084 2.36268,1.33931 2.59965,2.32473 -0.46275,0.77223 -0.25139,0.67251 -0.85414,1.18433 -5.58134,-0.68674 -12.48008,-1.60085 -18.32609,-1.73818 -5.99964,-0.14555 -11.86262,0.52037 -16.31868,0.15941 -0.51256,-0.0433 -1.10431,-0.3936 -1.20833,-0.19781 -1.95239,0.0549 -4.5033,0.71852 -6.13327,0.0781 -0.25998,-0.0937 -0.0755,0.23596 -0.31961,0.44309 -4.56131,-0.17596 -8.97398,0.55999 -13.49846,0.61798 -2.0566,0.48629 -4.19112,0.49395 -6.30433,0.62937 -1.08037,0.13132 -2.59136,0.78408 -3.47798,-0.48313 0.10933,-0.63298 0.42249,-0.68992 0.85417,-1.18433 5.18729,0.77811 10.93322,-0.20705 16.27677,-0.41237 1.92818,-0.0733 3.72386,-0.22278 5.68874,-0.3997 0.41929,-0.035 0.67515,0.4039 0.87096,-0.27147 6.22057,0.29507 11.49339,-0.28116 17.67483,0.14501 0.29593,0.17522 0.45341,-0.43285 0.72359,-0.37884 0.58433,0.47711 1.44865,-0.17471 1.65328,0.51659 2.7366,-0.38894 6.13771,-0.74846 8.69739,0.42185 0.0961,-0.1457 -0.0942,-0.24592 -0.18906,-0.3623 3.65027,-0.0673 7.39462,0.44845 11.07377,0.56028 -4.39197,-4.5454 -10.81365,-5.27595 -15.66576,-7.92273 0.17432,-0.33283 -0.0111,-0.60753 -0.0172,-0.91212 0.56479,-0.82196 1.32087,-0.45359 2.12041,0.17992 5.22775,1.69704 12.53739,4.40868 17.51593,7.2307 1.53658,0.87344 2.51701,1.5162 3.19186,2.75191"
       inkscape:export-xdpi="300"
       inkscape:export-ydpi="300" />
    <path
       inkscape:connector-curvature="0"
       id="path92"
       style="fill:#231f20;fill-opacity:1;fill-rule:nonzero;stroke:none"
       d="m 369.65527,870.46429 c 0.60481,-0.89877 2.9885,0.65479 4.28308,0.73269 -0.60614,0.88362 -3.02047,-0.84779 -4.28308,-0.73269 z m 6.40902,1.95967 c 0.74984,-0.28442 -0.005,-0.81044 0.115,-1.37761 -0.96386,-0.59194 -1.65339,-1.45508 -2.37312,-1.70193 -2.67567,-0.94078 -6.22396,-1.10395 -9.3331,-1.73187 -3.24889,-0.64315 -6.29016,-1.5767 -9.07583,-1.83089 -0.22525,-0.53005 -1.37471,-0.97169 -1.79741,-0.41015 -0.0604,0.72197 0.15795,1.33231 0.30234,1.97459 5.87934,1.35297 10.08595,2.07334 16.33243,4.39835 -4.67184,0.49112 -9.21726,1.52655 -14.12232,0.98568 -5.68776,1.30763 -11.5169,0.55768 -17.2931,0.74303 -5.78894,0.19607 -11.6148,1.50811 -17.46382,0.62489 -0.94067,0.44516 -1.98637,0.42677 -3.17688,-0.23281 -3.2698,0.84587 -6.15922,0.25792 -9.95773,-0.71137 -5.06822,0.006 -10.08458,-0.59804 -14.34331,-0.64422 -1.85563,-0.0152 -3.76127,-0.88291 -5.50428,0.14224 0.49503,0.3068 0.16658,0.94732 0.31422,1.39623 4.80833,-0.0119 9.65074,-0.3608 14.61664,-0.0386 5.39035,0.34736 10.78144,1.53582 16.12715,1.63156 7.31199,0.13071 14.31787,-1.06795 21.17273,-1.18001 9.06188,0.25167 17.92356,-0.40998 26.58895,-1.099 2.84454,-0.21396 6.11266,-1.44241 8.83514,0.79359 -3.57531,2.34062 -7.5367,2.80255 -11.2367,3.04091 -4.16988,1.23381 -8.58787,1.38252 -12.69721,2.87525 -0.78216,0.46106 -2.44927,-0.16183 -2.67895,0.70826 7.38225,-1.5483 16.23117,-2.40336 23.72964,-4.31199 0.7277,-0.18681 3.98092,-0.19278 4.69239,-2.47505 -0.33442,-0.73597 -1.00268,-1.54127 -1.77287,-1.56909"
       inkscape:export-xdpi="300"
       inkscape:export-ydpi="300" />
    <g
       id="g3767"
       inkscape:export-xdpi="300"
       inkscape:export-ydpi="300">
      <text
         sodipodi:linespacing="125%"
         xml:space="preserve"
         style="font-style:normal;font-weight:normal;font-size:18.9109211px;line-height:125%;font-family:'Bitstream Vera Sans';fill:#000000;fill-opacity:1;stroke:none"
         x="248.39853"
         y="935.38879"
         id="text2818-2"><tspan
           sodipodi:role="line"
           x="248.39853"
           y="935.38879"
           id="tspan2822-0"
           style="font-style:normal;font-variant:normal;font-weight:normal;font-stretch:normal;font-size:22.5px;line-height:125%;font-family:'Yanone Kaffeesatz';-inkscape-font-specification:'Yanone Kaffeesatz, Normal';text-align:center;writing-mode:lr-tb;text-anchor:middle">Internal state</tspan></text>
      <path
         d="m 285.15654,910.88408 c -1.71956,-1.2271 -2.82177,-0.13182 -5.1459,-1.05766 1.23954,-0.4269 3.98769,-0.39396 4.6381,0.27374 1.68482,-0.40191 3.78839,0.0239 5.34619,0.58592 -1.41504,0.81413 -3.42712,-1.35029 -4.83839,0.198 z m -15.15965,-0.51887 c -0.58976,-0.3708 -0.41792,-1.24796 -1.04735,-0.17036 -2.8813,-1.67632 -5.821,0.0414 -8.53495,-1.64576 -0.16603,1.0017 0.88287,0.58937 1.56001,0.94276 -0.20309,0.61979 -1.78558,-0.0476 -1.89927,-0.80094 -0.6923,0.39992 -1.54075,0.39484 -2.53968,0.055 1.85233,-1.7964 6.02478,1.04845 8.28901,-0.42503 4.15414,1.64332 5.93783,-0.0192 10.02241,1.43194 -1.76172,0.66793 -4.34591,-0.69316 -5.85018,0.61242 z m -13.41031,-2.01956 c -0.45963,0.81006 -2.7973,0.80099 -3.58703,-0.11538 0.10635,-0.22647 0.36936,-0.0749 0.57653,-0.0418 -0.0102,-0.88611 -1.3039,-0.17002 -1.32275,-0.8427 -0.78883,0.84758 1.33591,0.5091 0.54707,1.35668 -0.83468,-0.12136 -0.81326,-0.58714 -0.98833,-0.97299 -0.35464,0.0946 -0.2027,0.53856 -0.87282,0.74434 -0.89893,-0.16203 -0.88802,-0.68651 -1.2256,-1.07306 -0.94919,0.48151 -2.3189,-0.0825 -3.09351,0.81174 1.0126,-0.0207 2.00366,-0.13179 2.89437,-0.33951 0.27332,0.34589 0.025,0.90588 -0.0258,1.38644 -0.95927,-0.35027 0.23495,-0.33503 -0.17338,-0.91421 -0.5184,-0.15079 -0.49593,1.0118 -0.97482,0.98621 -0.69853,-0.38954 -1.3711,0.073 -1.66201,-0.70089 0.0185,0.56403 -1.09306,0.35301 -2.16229,0.48545 -0.45973,-0.87218 -1.82291,-0.53812 -2.3417,-0.41774 -2.19594,0.48481 -7.61367,-1.31152 -8.95667,0.68611 -0.52602,-0.30322 -0.93049,-0.33813 -1.28948,-0.2589 -0.48681,-0.47661 0.95495,-0.16706 1.25135,-0.31339 -0.81861,-0.54871 -2.94641,-0.17081 -4.16472,-0.0741 1.60188,-1.06093 4.37588,-0.7322 7.2368,-0.58387 0.29215,0.0825 0.38268,-0.35413 0.53956,-0.61356 0.61488,1.33102 1.58431,-0.55282 2.00128,0.55907 0.81468,-0.5518 2.99506,-0.6362 4.02344,-0.25678 0.58786,0.0987 -0.13136,-0.48951 0.53841,-0.61405 3.74373,-0.008 7.2033,-0.53016 10.95911,-0.12655 0.1098,-0.53703 0.4353,-0.56256 0.6404,-0.85592 0.26477,0.36941 -0.21967,0.32791 -0.16472,1.05652 3.90815,-1.17363 10.69307,0.69731 13.29964,0.2907 0.44031,-0.51975 0.54872,1.01823 1.18748,0.50077 0.378,0.64778 -1.52644,-0.2503 -1.68776,0.68555 -0.31704,-0.24222 0.22534,-0.25769 0.30114,-0.7141 -1.28971,0.37861 -3.09139,-0.4897 -4.12544,0.49866 0.10407,-1.35341 -1.2748,0.26281 -1.56487,-0.93124 -1.85638,0.45166 -4.72052,-0.0236 -7.27493,0.0116 -0.14175,0.44216 0.7422,0.47578 0.74992,0.87245 0.17506,-0.36029 0.58438,-0.52682 1.35336,-0.55525 0.90955,0.46496 -0.61693,0.71659 0.41065,1.01427 -0.77847,0.85195 -0.37157,-0.30593 -0.85192,-0.63059 z m -25.81991,-1.10738 c 0.0235,-0.13933 0.0476,-0.25126 0.0664,-0.32472 0.006,0.0702 -0.0136,0.17063 -0.0664,0.32472 z m -9.23922,0.0243 c 0.71207,-0.52724 1.62897,-0.52042 2.64168,-0.29684 -0.71093,0.52772 -1.83431,0.0133 -2.64168,0.29684 z m -3.88819,0.59872 c -0.60311,0.41039 -1.33698,0.54859 -2.29755,0.14351 1.15685,-0.47533 1.49653,0.0478 2.63797,-0.28484 -0.11061,0.4553 -0.4309,0.38806 -0.34042,0.14133 z m -5.53255,0.13588 c -0.0299,-0.0126 -0.0696,-0.002 -0.11363,-0.007 0.009,-0.0504 0.0241,-0.11194 0.0344,-0.16186 0.0185,0.0621 0.0443,0.11365 0.0793,0.16909 0.84294,-0.0108 0.0579,-0.99303 1.03458,-0.0792 0.63819,0.20129 -0.15595,-0.54058 0.40315,-0.95598 0.92631,-0.12487 1.92869,-0.0956 3.0105,0.15715 -0.77796,0.82503 -2.48957,-0.6429 -3.07438,0.65701 0.77329,0.4889 1.2532,-0.78742 1.62504,0.12909 -0.69345,0.39943 -2.4699,1.04759 -2.99889,0.0919 z m -0.0744,-0.18061 c -0.0407,-0.12567 -0.072,-0.24742 -0.0773,-0.39889 0.1633,0.0824 0.1246,0.2289 0.0773,0.39889 z m -2.0995,0.41696 c 0.14936,-0.60174 1.01977,0.59285 1.00808,-0.40241 0.14335,-0.78064 -0.59676,0.006 -0.94906,-0.40022 0.75507,-1.40447 1.30457,1.13349 1.42474,0.60082 0.48226,0.59679 -1.40567,0.87235 -1.48376,0.20181 z m 68.71698,0.17791 c 0.36657,0.26311 0.76447,-0.0982 0.7118,0.30017 -3.69717,-0.62308 -10.37994,-2.68157 -13.31316,-2.24991 -0.60774,-0.21559 -0.56994,-0.68803 -0.98233,-0.98403 -0.82726,0.16664 -0.37916,0.78973 -0.97597,0.98573 -1.49387,-1.56604 -2.87344,0.21267 -2.71307,-0.85924 -0.62966,0.2771 -0.51308,6.8e-4 -0.64041,0.85591 -0.4528,-0.55724 -1.2808,0.27384 -1.18748,-0.50077 0.40658,0.17146 0.69161,0.0746 0.91695,-0.18309 -2.37209,-0.59335 -6.15335,0.49813 -7.61534,0.15292 -0.009,-0.004 0.22313,-0.63847 -0.0333,-0.5838 -0.31983,0.0957 -0.50333,1.41566 -0.87767,0.75585 -0.14084,-1.10398 -3.60449,0.94898 -3.95957,-0.55737 -0.67635,1.35627 -1.88184,-0.4273 -3.07809,0.66902 0.0958,-0.28517 0.50096,-0.22286 0.204,-0.48375 -2.45238,0.72939 -7.44436,0.82193 -10.0149,0.5383 -1.15597,-0.13476 -2.33891,0.68229 -3.07438,0.65702 -0.91205,-0.0183 -1.05393,-0.56655 -1.17896,-0.0224 -0.0458,-0.22279 -0.35524,-0.12268 -0.68104,-0.20581 -0.85071,-0.19595 -5.51337,0.4153 -8.56441,-0.24731 -0.71624,0.0642 0.12387,0.89333 -0.6367,0.84391 -0.36657,-0.26311 -0.7541,0.10254 -0.71179,-0.30017 0.072,-0.2545 1.23253,-0.05 0.5384,-0.61404 -3.92608,0.82692 -9.52257,-0.40719 -12.5116,1.15404 0.13661,-0.29511 0.44352,-0.19281 0.53355,-0.60252 -1.49489,-0.0742 -2.96343,0.12046 -4.02229,0.25727 -3.5392,0.43386 -8.02114,-0.87288 -9.40025,1.06882 0.45575,0.27359 0.19332,0.84122 0.64792,1.11433 1.48545,-0.73017 4.58758,0.61872 6.02472,0.30228 0.99076,-0.21979 -0.51686,-0.73347 0.53956,-0.61355 0.34523,0.0371 1.42687,1.67344 2.00127,0.55907 8.02843,2.04262 15.05196,-0.24554 22.09761,0.65007 0.66897,-0.20627 0.51332,-0.63819 0.87282,-0.74434 0.045,0.88722 1.32482,-0.26884 1.42474,0.60083 0.14521,-0.31862 0.11401,-0.57596 0.0639,-0.81416 0.30732,0.26526 0.4518,0.61108 0.74992,0.87245 8.16942,-0.61112 17.96915,-0.75178 26.89672,-0.12069 0.88709,-0.88755 4.05671,0.32701 4.06157,0.3155 -0.62148,0.83676 -1.78335,-1.10478 -2.87409,0.18527 -3.86411,-0.25937 -10.02013,-0.305 -14.55215,0.0222 -11.28372,-0.45802 -20.12256,2.57045 -31.69585,0.89147 -0.34075,0.5346 0.21795,0.70238 -0.26302,1.28638 7.35821,2.00417 16.42237,0.15601 23.84925,-0.84964 -0.0763,0.2934 0.26977,0.41222 0.6098,0.54204 3.3946,-1.33593 7.74258,-0.31631 11.3634,-1.08204 1.47105,0.29477 3.64829,0.6296 4.16241,0.0731 7.72808,0.4644 10.42553,-0.46009 18.37045,0.20428 0.15684,-0.25945 0.24741,-0.69606 0.53841,-0.61405 2.59574,0.86403 6.01624,-0.36602 9.27735,0.54797 0.13673,-0.98692 1.38046,-0.0148 0.97481,-0.98621 0.28656,0.75845 0.89342,0.14614 1.66317,0.70137 0.61451,-0.9618 -0.55826,-0.005 -0.27654,-0.67283 0.7242,-0.30507 0.57028,0.60678 1.32274,0.8427 3.82167,-0.83025 6.91446,1.3965 11.00208,0.43421 0.45988,0.9265 2.88245,1.67681 3.58219,0.12691 -6.55452,-3.71373 -13.04553,-2.91031 -19.16716,-3.61974"
         style="fill:#231f20;fill-opacity:1;fill-rule:nonzero;stroke:none"
         id="path118"
         inkscape:connector-curvature="0" />
    </g>
    <g
       id="g3625"
       inkscape:export-xdpi="300"
       inkscape:export-ydpi="300">
      <g
         id="g3616">
        <g
           id="g15043"
           transform="translate(44,8)">
          <text
             sodipodi:linespacing="100%"
             xml:space="preserve"
             style="font-style:normal;font-variant:normal;font-weight:normal;font-stretch:normal;font-size:15px;line-height:100%;font-family:'Yanone Kaffeesatz';-inkscape-font-specification:'Yanone Kaffeesatz, Normal';text-align:center;writing-mode:lr-tb;text-anchor:middle;fill:#000000;fill-opacity:1;stroke:none"
             x="88.548386"
             y="955.04962"
             id="text2818-24-0"><tspan
               y="955.04962"
               x="88.548386"
               id="tspan5683"
               sodipodi:role="line">enhance sensory</tspan><tspan
               y="970.04962"
               x="88.548386"
               id="tspan5685"
               sodipodi:role="line">representation</tspan></text>
          <text
             id="text2942"
             y="985.03772"
             x="52.0247"
             style="font-style:normal;font-weight:normal;font-size:40px;line-height:125%;font-family:'Bitstream Vera Sans';fill:#000000;fill-opacity:1;stroke:none"
             xml:space="preserve"
             sodipodi:linespacing="125%"><tspan
               style="font-style:normal;font-variant:normal;font-weight:normal;font-stretch:normal;font-size:11px;line-height:125%;font-family:'Yanone Kaffeesatz';-inkscape-font-specification:'Yanone Kaffeesatz, Normal';text-align:start;writing-mode:lr-tb;text-anchor:start"
               id="tspan2946"
               y="985.03772"
               x="52.0247"
               sodipodi:role="line">(Jaramillo et al, 2011)</tspan></text>
        </g>
        <path
           inkscape:connector-curvature="0"
           id="path64"
           style="fill:#231f20;fill-opacity:1;fill-rule:nonzero;stroke:none"
           d="m 143.12472,900.14828 c 0.4071,0.18989 1.14152,0.32285 1.33662,0 5.28946,0.93086 10.65606,0.16141 19.64097,0.40124 -1.34697,-0.91332 -3.43489,-0.39469 -5.61159,-0.26711 -5.53382,0.32284 -10.67287,-0.77911 -15.366,-0.13413 z m 19.10816,3.34017 c -0.28394,0.26262 0.59505,-0.29939 0.66702,-0.53405 -0.26125,-0.3838 -0.56722,0.31241 -0.66702,0.53405 z m -7.88425,6.5483 c -1.08587,1.29131 -4.48761,4.37555 -5.47813,6.14644 2.917,-1.89274 5.90722,-4.87129 8.28423,-7.75009 -0.88549,0.017 -1.67045,1.40276 -2.8061,1.60365 z m -7.08178,-10.42269 c 1.44161,-0.37262 3.00642,0.15045 4.5427,0.13366 0.94639,-0.0109 1.92714,-0.31119 2.80681,-0.13366 3.36745,0.68015 6.74204,-1.06298 10.55557,0.26714 0.0727,0.70721 0,0.77398 0.13349,1.47019 -0.9406,0.72992 -1.46366,1.73132 -2.13781,2.40554 0.25083,0.2391 0.59053,0.38953 0.53475,0.93462 -0.16722,0.0564 -0.27289,0.17315 -0.26701,0.40136 -1.72045,-0.12256 -3.19639,1.14663 -4.00987,2.13774 -1.51879,1.85979 -4.09673,3.64104 -4.80912,5.74515 -0.22821,0.0505 -0.34621,-0.19963 -0.40189,0 -0.27234,0.79669 -1.36909,1.92649 -2.27137,2.53909 -0.22233,0.98012 -0.86281,1.54212 -1.86949,1.73726 0.22168,-1.2919 1.42477,-1.6037 1.86949,-2.67197 -0.86281,0.87896 -2.44318,2.1099 -3.47378,3.20671 -0.62296,0.66246 -0.94062,1.65879 -1.87019,1.33597 0.97951,-3.5684 3.92501,-5.16106 5.74577,-7.883 0.96851,-0.67994 2.02059,-1.27498 2.67134,-2.27196 1.52008,-0.57363 2.25584,-1.93232 3.74217,-2.53905 0.49007,-0.86279 1.03518,-1.37486 1.47017,-2.0043 -3.30203,-0.0447 -6.12441,0.91333 -8.95251,1.60303 -2.95654,1.27502 -5.17799,3.28576 -7.88362,4.81044 -5.15525,3.97558 -8.78077,9.48149 -12.42699,14.9654 -2.13259,4.28213 -4.62696,9.0867 -4.0086,14.43123 0.0723,0.6236 0.43434,1.19144 0.1336,1.87078 -0.67348,0.13933 -0.67348,-0.39545 -1.06958,-0.53479 -0.4284,-8.28422 3.5859,-16.07319 8.01716,-21.51231 2.42819,-4.22069 6.84906,-8.49044 11.49162,-11.35746 0.84069,-1.1136 3.49644,-2.44451 4.67744,-2.8068 2.6947,-1.3917 6.34089,-2.05933 10.95687,-2.40562 0.56716,-0.72341 1.37485,-1.21337 1.87007,-2.00356 -1.1979,-0.12254 -2.77238,0.11675 -4.14204,0 -0.55105,-0.0498 -1.04756,-0.36755 -1.47018,-0.40058 -3.32861,-0.25605 -5.30495,0.14971 -8.68549,0.13413 -2.71665,-0.0173 -6.51392,-0.20677 -8.41774,-0.40185 -1.01897,-0.10563 -2.21564,-0.31695 -2.27132,-0.80123 -0.0888,-0.80183 0.95739,-0.53409 1.73717,-0.53409 1.76965,-0.01 5.53385,-0.47447 7.48241,0.13279" />
      </g>
      <g
         id="g3596">
        <g
           id="g15058"
           transform="translate(-28,8)">
          <text
             sodipodi:linespacing="125%"
             xml:space="preserve"
             style="font-style:normal;font-weight:normal;font-size:18.9109211px;line-height:125%;font-family:'Bitstream Vera Sans';fill:#000000;fill-opacity:1;stroke:none"
             x="392.4119"
             y="956.45209"
             id="text2818-24"><tspan
               sodipodi:role="line"
               x="392.4119"
               y="956.45209"
               id="tspan2822-7"
               style="font-style:normal;font-variant:normal;font-weight:normal;font-stretch:normal;font-size:15px;line-height:125%;font-family:'Yanone Kaffeesatz';-inkscape-font-specification:'Yanone Kaffeesatz, Normal';text-align:center;writing-mode:lr-tb;text-anchor:middle">increase</tspan><tspan
               sodipodi:role="line"
               x="392.4119"
               y="975.20209"
               style="font-style:normal;font-variant:normal;font-weight:normal;font-stretch:normal;font-size:15px;line-height:125%;font-family:'Yanone Kaffeesatz';-inkscape-font-specification:'Yanone Kaffeesatz, Normal';text-align:center;writing-mode:lr-tb;text-anchor:middle"
               id="tspan2893"> motor readiness</tspan><tspan
               id="tspan2902"
               sodipodi:role="line"
               x="392.4119"
               y="993.95209"
               style="font-style:normal;font-variant:normal;font-weight:normal;font-stretch:normal;font-size:15px;line-height:125%;font-family:'Yanone Kaffeesatz';-inkscape-font-specification:'Yanone Kaffeesatz, Normal';text-align:center;writing-mode:lr-tb;text-anchor:middle" /></text>
          <text
             id="text2952"
             y="993.1189"
             x="362.84622"
             style="font-style:normal;font-weight:normal;font-size:40px;line-height:125%;font-family:'Bitstream Vera Sans';fill:#000000;fill-opacity:1;stroke:none"
             xml:space="preserve"
             sodipodi:linespacing="125%"><tspan
               style="font-style:normal;font-variant:normal;font-weight:normal;font-stretch:normal;font-size:11px;line-height:125%;font-family:'Yanone Kaffeesatz';-inkscape-font-specification:'Yanone Kaffeesatz, Normal';text-align:start;writing-mode:lr-tb;text-anchor:start"
               y="993.1189"
               x="362.84622"
               id="tspan2954"
               sodipodi:role="line">(Niemi et al, 1981)</tspan></text>
        </g>
        <path
           inkscape:connector-curvature="0"
           id="path84"
           style="fill:#231f20;fill-opacity:1;fill-rule:nonzero;stroke:none"
           d="m 346.20798,898.78238 c 0.42793,-0.78343 1.59276,0.0345 2.30825,-0.0829 -0.43218,0.42288 -1.59377,-0.30695 -2.30825,0.0829 z m 9.04238,14.53917 c -2.38966,-3.31562 -6.26443,-7.27002 -8.10584,-11.54668 3.5018,3.2661 5.86828,7.59894 8.10584,11.54668 z m -2.80538,-14.96336 c -0.31662,0.48153 -1.36542,-0.12048 -1.96333,0.0864 0.31665,-0.43999 1.36472,0.15456 1.96333,-0.0864 z m 4.10598,0.69164 c -0.5734,0.53047 -1.87686,-0.14061 -2.73517,0.16911 0.56785,-0.50864 1.8777,-0.003 2.73517,-0.16911 z m 11.83215,46.60143 c 0.0845,-0.0522 0.1705,-0.0301 0.2558,0.0844 2.54717,-3.4943 1.49647,-7.59931 1.80456,-11.36965 -0.14077,-0.19097 -0.28361,-0.057 -0.42386,-0.0828 0.6315,-0.52234 0.0673,-1.81513 -0.16891,-3.07886 -0.43275,-2.29417 -1.23072,-5.54077 -2.04224,-7.52313 -0.25235,-0.60979 -0.82865,-1.85752 -1.0275,-2.05669 -0.0629,-0.0626 -0.12555,-0.0899 -0.17661,-0.10545 -0.22103,0.0632 -0.14385,-0.0306 0,0 0.0449,-0.0127 0.1049,-0.0306 0.17926,-0.0631 -0.35765,-0.0739 -0.15015,-0.37221 -0.25545,-0.59825 -0.23687,-0.50128 -0.80278,-1.04679 -1.02319,-1.53924 -0.2391,-0.53189 -0.27565,-1.17473 -0.51124,-1.71035 -0.23066,-0.52358 -0.74393,-0.98064 -1.02716,-1.54329 -0.43687,-0.86464 -0.91515,-3.06349 -1.44763,-2.64806 -0.0115,-0.31152 0.38002,-0.14726 0.17255,-0.51199 -1.91592,-2.91819 -3.65402,-6.68512 -6.91411,-9.49639 -0.24446,-0.29475 -0.031,0.46151 -0.344,0.16911 0.46194,-0.38631 -0.21042,-0.30365 -0.0829,-0.59678 -1.72679,-1.20986 -3.3413,-2.66421 -4.87012,-3.1685 1.45283,-0.14887 2.90355,0.085 4.35999,0.09 0.22581,-0.25844 0.51829,0.12087 0.51088,-0.34405 0.0108,0.32641 0.2045,0.22666 0.42661,0.42763 0.40112,-0.0686 0.79787,-0.034 1.19774,-0.16792 1.41288,0.0316 2.84237,1.11568 3.84821,0.26125 -0.1342,-0.2556 -0.36449,-0.51461 -0.43005,-0.7722 -0.48259,-0.20625 -0.96777,0.17022 -1.45209,-0.25786 0.77101,-0.0898 1.5398,0.0461 2.30669,0.25839 1.05544,-0.48985 2.11153,0.51114 3.16715,-0.0779 -2.46582,-1.20158 -5.58531,-0.54095 -8.20757,-0.86565 -1.14108,-0.14555 -2.18977,-0.54057 -3.33519,-0.43329 -1.77654,-0.33979 -4.26316,-0.33579 -6.32159,-0.34471 -0.85731,-0.24642 -1.71337,-1.26784 -2.56535,-0.68867 -0.13564,0.42787 0.58552,0.8583 0.93953,1.28371 -0.31605,-0.0158 -0.62779,0.0133 -0.94338,0.2536 -0.0998,0.81229 1.13304,1.05662 1.71092,1.71449 0.45679,0.52165 0.37175,1.27771 0.93909,1.28321 0.1453,1.3794 1.0932,2.98535 1.87712,3.93457 1.22269,1.48923 3.35748,4.26373 4.86379,6.41429 2.03339,2.90875 2.80481,6.56301 5.20609,8.64072 0.36189,-0.22852 0.19952,-0.45595 0.51209,-0.68501 -1.66952,-3.46231 -3.5258,-7.53382 -6.056,-11.54566 -0.28993,-0.0837 -0.35029,-0.12268 -0.42946,-0.25926 -1.23674,-2.08813 -3.84604,-5.87202 -6.39885,-8.29563 3.93273,-0.1795 7.67376,2.39229 11.10585,6.16711 3.56586,3.92316 5.9038,9.30335 8.02108,13.68603 0.78956,1.63969 1.17654,3.43237 2.21672,4.78874 0.26659,1.61461 0.90357,3.1166 1.27502,4.70106 0.37692,1.60403 0.67711,3.21003 1.02125,4.78868 -0.43393,3.62263 0.82851,7.69012 -1.80755,11.02475 0.50859,0.28771 -0.28246,0.57165 0.34376,0.85825" />
      </g>
      <g
         id="g3606">
        <g
           id="g15050">
          <text
             sodipodi:linespacing="125%"
             xml:space="preserve"
             style="font-style:normal;font-weight:normal;font-size:18.9109211px;line-height:125%;font-family:'Bitstream Vera Sans';fill:#000000;fill-opacity:1;stroke:none"
             x="247.96838"
             y="1008.9634"
             id="text2818-24-0-7"><tspan
               sodipodi:role="line"
               x="249.14026"
               y="1008.9634"
               style="font-style:normal;font-variant:normal;font-weight:normal;font-stretch:normal;font-size:15px;line-height:125%;font-family:'Yanone Kaffeesatz';-inkscape-font-specification:'Yanone Kaffeesatz, Normal';text-align:center;writing-mode:lr-tb;text-anchor:middle"
               id="tspan2935-8">serve as </tspan><tspan
               sodipodi:role="line"
               x="247.96838"
               y="1027.7134"
               style="font-style:normal;font-variant:normal;font-weight:normal;font-stretch:normal;font-size:15px;line-height:125%;font-family:'Yanone Kaffeesatz';-inkscape-font-specification:'Yanone Kaffeesatz, Normal';text-align:center;writing-mode:lr-tb;text-anchor:middle"
               id="tspan2967">prior information</tspan><tspan
               id="tspan2912"
               sodipodi:role="line"
               x="247.96838"
               y="1046.4634"
               style="font-style:normal;font-variant:normal;font-weight:normal;font-stretch:normal;font-size:15px;line-height:125%;font-family:'Yanone Kaffeesatz';-inkscape-font-specification:'Yanone Kaffeesatz, Normal';text-align:center;writing-mode:lr-tb;text-anchor:middle" /></text>
          <text
             id="text2948"
             y="1043.525"
             x="211.5072"
             style="font-style:normal;font-weight:normal;font-size:40px;line-height:125%;font-family:'Bitstream Vera Sans';fill:#000000;fill-opacity:1;stroke:none"
             xml:space="preserve"
             sodipodi:linespacing="125%"><tspan
               style="font-style:normal;font-variant:normal;font-weight:normal;font-stretch:normal;font-size:11px;line-height:125%;font-family:'Yanone Kaffeesatz';-inkscape-font-specification:'Yanone Kaffeesatz, Normal';text-align:start;writing-mode:lr-tb;text-anchor:start"
               y="1043.525"
               x="211.5072"
               id="tspan2950"
               sodipodi:role="line">(Katzner et al, 2012)</tspan></text>
        </g>
        <path
           inkscape:connector-curvature="0"
           id="path48-1"
           style="fill:#231f20;fill-opacity:1;fill-rule:nonzero;stroke:none"
           d="m 251.39815,947.4602 c 5.25213,2.04513 4.78938,5.98552 6.36398,8.94276 -0.52837,1.05412 1.04646,2.2777 0.27497,3.08677 -2.95709,-3.58234 -0.96398,-8.09464 -7.04867,-11.08621 -0.62306,1.17631 -2.30935,2.21865 -2.57043,3.21121 1.10084,-0.33711 1.33931,-1.48087 2.32473,-1.6294 0.77223,0.29005 0.67251,0.15757 1.18433,0.53539 -0.68674,3.49828 -1.60085,7.82244 -1.73818,11.48672 -0.14555,3.76045 0.52037,7.43536 0.15941,10.22837 -0.0433,0.32134 -0.3936,0.69223 -0.19781,0.75738 0.0549,1.2238 0.71852,2.82266 0.0781,3.84429 -0.0937,0.16303 0.23596,0.0474 0.44309,0.20039 -0.17596,2.85896 0.55999,5.6248 0.61798,8.46069 0.48629,1.28912 0.49395,2.62702 0.62937,3.9516 0.13132,0.6771 0.78408,1.62421 -0.48313,2.17994 -0.63298,-0.0687 -0.68992,-0.26477 -1.18433,-0.53538 0.77811,-3.25137 -0.20705,-6.85291 -0.41237,-10.20212 -0.0733,-1.20862 -0.22278,-2.33418 -0.3997,-3.56576 -0.035,-0.2628 0.4039,-0.42326 -0.27147,-0.54593 0.29507,-3.89897 -0.28116,-7.20396 0.14501,-11.0784 0.17522,-0.18551 -0.43285,-0.28425 -0.37884,-0.45357 0.47711,-0.36631 -0.17471,-0.90803 0.51659,-1.03627 -0.38894,-1.71529 -0.74846,-3.84712 0.42185,-5.45154 -0.1457,-0.0602 -0.24592,0.0592 -0.3623,0.11856 -0.0673,-2.28798 0.44845,-4.6349 0.56028,-6.94108 -4.5454,2.75292 -5.27595,6.77806 -7.92273,9.81928 -0.33283,-0.10923 -0.60753,0.01 -0.91212,0.0108 -0.82196,-0.35407 -0.45359,-0.82796 0.17992,-1.32915 1.69704,-3.27667 4.40868,-7.85832 7.2307,-10.97885 0.87344,-0.9631 1.5162,-1.57767 2.75191,-2.00063" />
      </g>
    </g>
  </g>
</svg>
