<?xml version="1.0" encoding="UTF-8" standalone="no"?>
<!-- Created with Inkscape (http://www.inkscape.org/) -->

<svg
   xmlns:dc="http://purl.org/dc/elements/1.1/"
   xmlns:cc="http://creativecommons.org/ns#"
   xmlns:rdf="http://www.w3.org/1999/02/22-rdf-syntax-ns#"
   xmlns:svg="http://www.w3.org/2000/svg"
   xmlns="http://www.w3.org/2000/svg"
   xmlns:sodipodi="http://sodipodi.sourceforge.net/DTD/sodipodi-0.dtd"
   xmlns:inkscape="http://www.inkscape.org/namespaces/inkscape"
   width="297"
   height="118"
   id="svg2"
   version="1.1"
   inkscape:version="0.91 r13725"
   sodipodi:docname="percepts2.svg"
   inkscape:export-filename="/home/fede/Data-xps/jobapps/DeepMind/talk/remark/figs/intro2/percepts-d.png"
   inkscape:export-xdpi="500"
   inkscape:export-ydpi="500">
  <defs
     id="defs4">
    <marker
       inkscape:stockid="Arrow2Mend"
       orient="auto"
       refY="0"
       refX="0"
       id="Arrow2Mend"
       style="overflow:visible">
      <path
         id="path3626"
         style="font-size:12px;fill-rule:evenodd;stroke-width:0.625;stroke-linejoin:round"
         d="M 8.7185878,4.0337352 -2.2072895,0.01601326 8.7185884,-4.0017078 c -1.7454984,2.3720609 -1.7354408,5.6174519 -6e-7,8.035443 z"
         transform="scale(-0.6,-0.6)"
         inkscape:connector-curvature="0" />
    </marker>
    <marker
       inkscape:stockid="Arrow2Send"
       orient="auto"
       refY="0"
       refX="0"
       id="Arrow2Send"
       style="overflow:visible">
      <path
         id="path3632"
         style="font-size:12px;fill-rule:evenodd;stroke-width:0.625;stroke-linejoin:round"
         d="M 8.7185878,4.0337352 -2.2072895,0.01601326 8.7185884,-4.0017078 c -1.7454984,2.3720609 -1.7354408,5.6174519 -6e-7,8.035443 z"
         transform="matrix(-0.3,0,0,-0.3,0.69,0)"
         inkscape:connector-curvature="0" />
    </marker>
    <inkscape:perspective
       sodipodi:type="inkscape:persp3d"
       inkscape:vp_x="0 : 526.18109 : 1"
       inkscape:vp_y="0 : 1000 : 0"
       inkscape:vp_z="744.09448 : 526.18109 : 1"
       inkscape:persp3d-origin="372.04724 : 350.78739 : 1"
       id="perspective10" />
    <inkscape:perspective
       id="perspective4240"
       inkscape:persp3d-origin="0.5 : 0.33333333 : 1"
       inkscape:vp_z="1 : 0.5 : 1"
       inkscape:vp_y="0 : 1000 : 0"
       inkscape:vp_x="0 : 0.5 : 1"
       sodipodi:type="inkscape:persp3d" />
    <marker
       inkscape:stockid="Arrow2Mend"
       orient="auto"
       refY="0"
       refX="0"
       id="Arrow2Mend-5"
       style="overflow:visible">
      <path
         id="path3626-7"
         style="font-size:12px;fill-rule:evenodd;stroke-width:0.625;stroke-linejoin:round"
         d="M 8.7185878,4.0337352 -2.2072895,0.01601326 8.7185884,-4.0017078 c -1.7454984,2.3720609 -1.7354408,5.6174519 -6e-7,8.035443 z"
         transform="scale(-0.6,-0.6)"
         inkscape:connector-curvature="0" />
    </marker>
    <inkscape:perspective
       id="perspective4268"
       inkscape:persp3d-origin="0.5 : 0.33333333 : 1"
       inkscape:vp_z="1 : 0.5 : 1"
       inkscape:vp_y="0 : 1000 : 0"
       inkscape:vp_x="0 : 0.5 : 1"
       sodipodi:type="inkscape:persp3d" />
    <marker
       inkscape:stockid="Arrow2Mend"
       orient="auto"
       refY="0"
       refX="0"
       id="Arrow2Mend-1"
       style="overflow:visible">
      <path
         id="path3626-2"
         style="font-size:12px;fill-rule:evenodd;stroke-width:0.625;stroke-linejoin:round"
         d="M 8.7185878,4.0337352 -2.2072895,0.01601326 8.7185884,-4.0017078 c -1.7454984,2.3720609 -1.7354408,5.6174519 -6e-7,8.035443 z"
         transform="scale(-0.6,-0.6)"
         inkscape:connector-curvature="0" />
    </marker>
    <inkscape:perspective
       id="perspective4311"
       inkscape:persp3d-origin="0.5 : 0.33333333 : 1"
       inkscape:vp_z="1 : 0.5 : 1"
       inkscape:vp_y="0 : 1000 : 0"
       inkscape:vp_x="0 : 0.5 : 1"
       sodipodi:type="inkscape:persp3d" />
    <inkscape:perspective
       id="perspective2891"
       inkscape:persp3d-origin="0.5 : 0.33333333 : 1"
       inkscape:vp_z="1 : 0.5 : 1"
       inkscape:vp_y="0 : 1000 : 0"
       inkscape:vp_x="0 : 0.5 : 1"
       sodipodi:type="inkscape:persp3d" />
    <inkscape:perspective
       id="perspective4367"
       inkscape:persp3d-origin="0.5 : 0.33333333 : 1"
       inkscape:vp_z="1 : 0.5 : 1"
       inkscape:vp_y="0 : 1000 : 0"
       inkscape:vp_x="0 : 0.5 : 1"
       sodipodi:type="inkscape:persp3d" />
    <inkscape:perspective
       id="perspective4399"
       inkscape:persp3d-origin="0.5 : 0.33333333 : 1"
       inkscape:vp_z="1 : 0.5 : 1"
       inkscape:vp_y="0 : 1000 : 0"
       inkscape:vp_x="0 : 0.5 : 1"
       sodipodi:type="inkscape:persp3d" />
    <inkscape:perspective
       id="perspective4421"
       inkscape:persp3d-origin="0.5 : 0.33333333 : 1"
       inkscape:vp_z="1 : 0.5 : 1"
       inkscape:vp_y="0 : 1000 : 0"
       inkscape:vp_x="0 : 0.5 : 1"
       sodipodi:type="inkscape:persp3d" />
    <inkscape:perspective
       id="perspective4421-0"
       inkscape:persp3d-origin="0.5 : 0.33333333 : 1"
       inkscape:vp_z="1 : 0.5 : 1"
       inkscape:vp_y="0 : 1000 : 0"
       inkscape:vp_x="0 : 0.5 : 1"
       sodipodi:type="inkscape:persp3d" />
    <inkscape:perspective
       id="perspective4452"
       inkscape:persp3d-origin="0.5 : 0.33333333 : 1"
       inkscape:vp_z="1 : 0.5 : 1"
       inkscape:vp_y="0 : 1000 : 0"
       inkscape:vp_x="0 : 0.5 : 1"
       sodipodi:type="inkscape:persp3d" />
    <inkscape:perspective
       id="perspective4482"
       inkscape:persp3d-origin="0.5 : 0.33333333 : 1"
       inkscape:vp_z="1 : 0.5 : 1"
       inkscape:vp_y="0 : 1000 : 0"
       inkscape:vp_x="0 : 0.5 : 1"
       sodipodi:type="inkscape:persp3d" />
    <inkscape:perspective
       id="perspective2858"
       inkscape:persp3d-origin="0.5 : 0.33333333 : 1"
       inkscape:vp_z="1 : 0.5 : 1"
       inkscape:vp_y="0 : 1000 : 0"
       inkscape:vp_x="0 : 0.5 : 1"
       sodipodi:type="inkscape:persp3d" />
    <inkscape:perspective
       id="perspective2880"
       inkscape:persp3d-origin="0.5 : 0.33333333 : 1"
       inkscape:vp_z="1 : 0.5 : 1"
       inkscape:vp_y="0 : 1000 : 0"
       inkscape:vp_x="0 : 0.5 : 1"
       sodipodi:type="inkscape:persp3d" />
    <inkscape:perspective
       id="perspective3704"
       inkscape:persp3d-origin="0.5 : 0.33333333 : 1"
       inkscape:vp_z="1 : 0.5 : 1"
       inkscape:vp_y="0 : 1000 : 0"
       inkscape:vp_x="0 : 0.5 : 1"
       sodipodi:type="inkscape:persp3d" />
    <inkscape:perspective
       id="perspective3730"
       inkscape:persp3d-origin="0.5 : 0.33333333 : 1"
       inkscape:vp_z="1 : 0.5 : 1"
       inkscape:vp_y="0 : 1000 : 0"
       inkscape:vp_x="0 : 0.5 : 1"
       sodipodi:type="inkscape:persp3d" />
    <inkscape:perspective
       id="perspective2867"
       inkscape:persp3d-origin="0.5 : 0.33333333 : 1"
       inkscape:vp_z="1 : 0.5 : 1"
       inkscape:vp_y="0 : 1000 : 0"
       inkscape:vp_x="0 : 0.5 : 1"
       sodipodi:type="inkscape:persp3d" />
    <inkscape:perspective
       id="perspective2867-4"
       inkscape:persp3d-origin="0.5 : 0.33333333 : 1"
       inkscape:vp_z="1 : 0.5 : 1"
       inkscape:vp_y="0 : 1000 : 0"
       inkscape:vp_x="0 : 0.5 : 1"
       sodipodi:type="inkscape:persp3d" />
    <inkscape:perspective
       id="perspective2916"
       inkscape:persp3d-origin="0.5 : 0.33333333 : 1"
       inkscape:vp_z="1 : 0.5 : 1"
       inkscape:vp_y="0 : 1000 : 0"
       inkscape:vp_x="0 : 0.5 : 1"
       sodipodi:type="inkscape:persp3d" />
    <inkscape:perspective
       id="perspective2946"
       inkscape:persp3d-origin="0.5 : 0.33333333 : 1"
       inkscape:vp_z="1 : 0.5 : 1"
       inkscape:vp_y="0 : 1000 : 0"
       inkscape:vp_x="0 : 0.5 : 1"
       sodipodi:type="inkscape:persp3d" />
  </defs>
  <sodipodi:namedview
     id="base"
     pagecolor="#ffffff"
     bordercolor="#666666"
     borderopacity="1.0"
     inkscape:pageopacity="0.0"
     inkscape:pageshadow="2"
     inkscape:zoom="6.2290772"
     inkscape:cx="150.65767"
     inkscape:cy="68.638506"
     inkscape:document-units="px"
     inkscape:current-layer="layer1"
     showgrid="false"
     units="mm"
     inkscape:window-width="3100"
     inkscape:window-height="1749"
     inkscape:window-x="100"
     inkscape:window-y="51"
     inkscape:window-maximized="1" />
  <metadata
     id="metadata7">
    <rdf:RDF>
      <cc:Work
         rdf:about="">
        <dc:format>image/svg+xml</dc:format>
        <dc:type
           rdf:resource="http://purl.org/dc/dcmitype/StillImage" />
        <dc:title></dc:title>
      </cc:Work>
    </rdf:RDF>
  </metadata>
  <g
     inkscape:label="Layer 1"
     inkscape:groupmode="layer"
     id="layer1"
     transform="translate(0,-934.36219)">
    <text
       xml:space="preserve"
       style="font-style:normal;font-weight:normal;font-size:40px;line-height:100%;font-family:'Bitstream Vera Sans';fill:#000000;fill-opacity:1;stroke:none"
       x="34.285717"
       y="954.27472"
       id="text2853"
       sodipodi:linespacing="100%"
       inkscape:export-filename="/home/fede/Data-xps/jobapps/DeepMind/talk/remark/figs/intro/percepts.png"
       inkscape:export-xdpi="500"
       inkscape:export-ydpi="500"><tspan
         sodipodi:role="line"
         id="tspan2855"
         x="34.285717"
         y="954.27472"
         style="font-style:normal;font-variant:normal;font-weight:normal;font-stretch:normal;font-size:18.75px;line-height:100%;font-family:'Yanone Kaffeesatz';-inkscape-font-specification:'Yanone Kaffeesatz, Normal';text-align:center;writing-mode:lr-tb;text-anchor:middle">subjective</tspan><tspan
         sodipodi:role="line"
         x="34.285717"
         y="973.02472"
         id="tspan2857"
         style="font-style:normal;font-variant:normal;font-weight:normal;font-stretch:normal;font-size:18.75px;line-height:100%;font-family:'Yanone Kaffeesatz';-inkscape-font-specification:'Yanone Kaffeesatz, Normal';text-align:center;writing-mode:lr-tb;text-anchor:middle">percept</tspan></text>
    <text
       xml:space="preserve"
       style="font-style:normal;font-weight:normal;font-size:40px;font-family:'Bitstream Vera Sans';fill:#000000;fill-opacity:1;stroke:none"
       x="141.07861"
       y="952.8938"
       id="text2853-1"
       inkscape:export-filename="/home/fede/Data-xps/jobapps/DeepMind/talk/remark/figs/intro/percepts.png"
       inkscape:export-xdpi="500"
       inkscape:export-ydpi="500"><tspan
         sodipodi:role="line"
         x="141.07861"
         y="952.8938"
         id="tspan2857-5"
         style="font-style:normal;font-variant:normal;font-weight:normal;font-stretch:normal;font-size:18.75px;line-height:125%;font-family:'Yanone Kaffeesatz';-inkscape-font-specification:'Yanone Kaffeesatz, Normal';text-align:center;writing-mode:lr-tb;text-anchor:middle">sensory</tspan><tspan
         sodipodi:role="line"
         x="141.07861"
         y="976.3313"
         style="font-style:normal;font-variant:normal;font-weight:normal;font-stretch:normal;font-size:18.75px;line-height:125%;font-family:'Yanone Kaffeesatz';-inkscape-font-specification:'Yanone Kaffeesatz, Normal';text-align:center;writing-mode:lr-tb;text-anchor:middle"
         id="tspan2902">processing</tspan></text>
    <text
       xml:space="preserve"
       style="font-style:normal;font-weight:normal;font-size:40px;line-height:125%;font-family:'Bitstream Vera Sans';fill:#000000;fill-opacity:1;stroke:none"
       x="241.07861"
       y="954.19263"
       id="text2853-9"
       sodipodi:linespacing="125%"
       inkscape:export-filename="/home/fede/Data-xps/jobapps/DeepMind/talk/remark/figs/intro/percepts.png"
       inkscape:export-xdpi="500"
       inkscape:export-ydpi="500"><tspan
         sodipodi:role="line"
         x="242.54346"
         y="954.19263"
         style="font-style:normal;font-variant:normal;font-weight:normal;font-stretch:normal;font-size:18.75px;line-height:125%;font-family:'Yanone Kaffeesatz';-inkscape-font-specification:'Yanone Kaffeesatz, Normal';text-align:center;writing-mode:lr-tb;text-anchor:middle"
         id="tspan4199">previous </tspan><tspan
         sodipodi:role="line"
         x="241.07861"
         y="977.63013"
         style="font-style:normal;font-variant:normal;font-weight:normal;font-stretch:normal;font-size:18.75px;line-height:125%;font-family:'Yanone Kaffeesatz';-inkscape-font-specification:'Yanone Kaffeesatz, Normal';text-align:center;writing-mode:lr-tb;text-anchor:middle"
         id="tspan4200">knowledge</tspan></text>
    <text
       xml:space="preserve"
       style="font-style:normal;font-weight:normal;font-size:40px;font-family:'Bitstream Vera Sans';fill:#000000;fill-opacity:1;stroke:none"
       x="86.65004"
       y="966.47052"
       id="text2853-4"
       inkscape:export-filename="/home/fede/Data-xps/jobapps/DeepMind/talk/remark/figs/intro/percepts.png"
       inkscape:export-xdpi="500"
       inkscape:export-ydpi="500"><tspan
         sodipodi:role="line"
         x="86.65004"
         y="966.47052"
         id="tspan2857-2"
         style="font-style:normal;font-variant:normal;font-weight:normal;font-stretch:normal;font-size:20px;font-family:Arial;-inkscape-font-specification:Arial;text-align:center;text-anchor:middle">=</tspan></text>
    <text
       xml:space="preserve"
       style="font-style:normal;font-weight:normal;font-size:40px;font-family:'Bitstream Vera Sans';fill:#000000;fill-opacity:1;stroke:none"
       x="191.71429"
       y="966.45093"
       id="text2853-4-2"
       inkscape:export-filename="/home/fede/Data-xps/jobapps/DeepMind/talk/remark/figs/intro/percepts.png"
       inkscape:export-xdpi="500"
       inkscape:export-ydpi="500"><tspan
         sodipodi:role="line"
         x="191.71429"
         y="966.45093"
         id="tspan2857-2-1"
         style="font-style:normal;font-variant:normal;font-weight:normal;font-stretch:normal;font-size:20px;font-family:Arial;-inkscape-font-specification:Arial;text-align:center;text-anchor:middle">+</tspan></text>
    <path
       inkscape:connector-curvature="0"
       id="path228"
       style="fill:#000000;fill-opacity:1;fill-rule:nonzero;stroke:none"
       d="m 35.959834,1000.8112 c 0.250213,-0.3298 0.651419,-0.81997 0.592805,-1.17767 -0.05249,-0.3323 -0.509401,-0.6443 -1.037525,-0.4196 -0.250214,0.1048 -0.639196,0.90687 -0.814979,1.17647 -1.417534,2.1442 -3.739549,5.1876 -5.113569,7.2294 -0.771867,0.7006 -1.528262,2.1296 -2.741943,2.6058 -0.111072,-0.2104 -0.141989,-0.511 -0.148115,-0.8404 0.04314,-0.2594 0.268562,-0.3116 0.444719,-0.4205 0.144865,-0.4518 0.364162,-0.8197 0.666863,-1.0929 -0.06183,-0.3502 0.145239,-0.3955 0.148115,-0.6724 0.417023,-0.6129 0.67624,-1.6149 0.889411,-2.2694 0.03417,-0.1052 0.108224,-0.126 0.148115,-0.2524 1.39559,-4.4238 2.535214,-8.96617 3.705411,-13.70147 0.713253,-2.886 1.383368,-5.9473 1.482216,-9.16272 -0.447941,-0.2174 -0.907731,0.0979 -1.260044,0.2516 0.0061,2.15112 -0.685212,4.71492 -0.815006,6.47292 0.01237,0.21 -0.16681,0.2031 -0.222518,0.3369 -0.416679,3.0364 -1.528262,6.1498 -2.223167,9.0782 -1.015609,2.52137 -1.623888,6.14677 -2.890058,8.65797 -0.478484,-3.0891 -1.194988,-6.3572 -1.482217,-9.16277 -0.592834,-0.4135 -1.203989,-0.217 -1.555928,0.4204 0.361286,1.6638 0.490707,3.17307 0.592806,4.62317 0.01553,0.2067 0.148116,0.1019 0.148116,0.084 0.01237,0.2732 -0.160684,0.2492 -0.148116,0.6725 0.01237,0.3849 0.157462,0.389 0.222173,0.6724 0.08953,0.3927 -0.0092,1.0122 0.07406,1.429 0.04314,0.2137 0.197726,0.3364 0.222172,0.5045 0.096,0.6304 -0.08628,1.0263 0.296605,1.0088 0.06471,0.3922 -0.244117,-0.056 -0.222173,0.168 0.04314,0.2034 0.06471,0.431 0.29623,0.42 -0.268562,1.3066 0.305578,2.5989 0.518748,4.1192 0.126546,-0.01 0.19163,0.063 0.222548,0.1684 0.101724,-0.2104 0.265312,0.01 0.370632,0 0.885816,-0.091 1.763002,-0.8584 2.519397,-1.261 1.688944,-2.0915 3.377889,-4.1822 4.816994,-6.5569 0.787311,-0.9281 1.429384,-1.9717 2.297224,-3.1099" />
    <path
       inkscape:connector-curvature="0"
       id="path226"
       style="fill:#000000;fill-opacity:1;fill-rule:nonzero;stroke:none"
       d="m 138.99294,982.0632 c 2.4866,-0.9783 1.55343,2.6631 1.59004,3.8888 0.024,0.798 0.0799,1.5554 -0.0367,2.3013 -0.005,0.036 -0.018,0.2868 -0.0188,0.3234 0.11744,5.6994 -0.22682,12.503 -0.41,18.1444 0.48033,-0.7019 0.35098,-1.3392 0.98789,-1.9211 0.48844,-1.441 0.97284,-2.8835 2.49931,-3.9101 0.3693,0.088 0.81173,-0.01 0.97039,0.6086 -0.0615,0.033 -0.0181,0.1029 -0.009,0.1615 -0.97227,1.0477 -1.70207,2.4769 -1.99538,3.6145 -0.14415,0.039 0.0962,0.1858 0.15225,0.1712 0.0496,0.1691 -0.28429,0.4699 -0.0951,0.5133 -0.15217,0.2264 -0.86194,0.5708 -0.56047,1.2652 -0.91492,0.7146 -1.22121,3.4898 -2.13741,4.3849 -0.35999,0.3549 -1.24293,0.4249 -1.58808,-0.028 -0.0404,-0.3007 0.67332,-1.1855 0.5034,-1.3981 -0.47774,-0.593 -0.88421,-2.152 -1.48462,-2.3573 -0.0318,-0.1971 0.0829,-0.3345 0.0948,-0.5136 -0.69432,-1.5804 -1.65437,-4.0619 -2.57016,-5.4387 2.25938,-1.8363 2.99796,3.4356 3.8349,4.8959 0.29502,-0.7967 0.26698,-2.1244 0.17905,-3.072 0.38333,0.151 -0.18099,-0.605 0.27534,-0.8273 -0.3452,-0.131 -0.092,-0.7351 -0.0764,-0.9127 0.0306,-0.3419 -0.15628,-0.9147 0.18962,-1.0273 -0.24715,-0.3309 0.0425,-0.8195 -0.18122,-0.7893 -0.0698,-0.3543 0.34563,0.078 0.2758,-0.2759 -0.14725,-0.1604 0.027,0.2385 -0.19953,0.086 -0.0734,-0.4384 -0.0567,-0.3236 0.16148,-0.5423 -0.061,0.026 -0.31022,-0.248 -0.19978,-0.4655 0.0164,-0.031 0.19918,-0.056 0.19953,-0.086 0.004,-0.1203 -0.19119,-0.1088 -0.18096,-0.2382 0.002,-0.047 0.14388,0.083 0.12373,0.1048 0.13239,-0.1352 -0.1514,-0.2833 -0.1621,-0.5613 -0.004,-0.1623 0.17887,-0.3787 0.1996,-0.6369 0.0131,-0.1762 -0.15854,-0.4149 -0.16196,-0.561 -0.009,-0.2952 0.17769,-0.4964 0.16163,-0.5419 -0.0165,-0.045 -0.26703,-0.2926 0.0186,-0.3238 -0.17268,-0.3721 0.22629,-0.9569 -0.0481,-1.3977 -0.0344,-0.2709 0.0943,-0.4771 0.17059,-0.7037 -0.0401,-0.8132 -0.29625,-1.6098 -0.23873,-2.5769 -0.007,0.1144 0.21778,-0.4414 0.22788,-0.5711 0.0277,-0.4023 -0.14877,-0.8518 -0.15261,-1.2742 -0.008,-1.9006 0.0643,-3.9055 -0.11674,-5.7815 -0.0536,-0.5455 -0.052,-1.1305 -0.19145,-1.7308" />
    <path
       inkscape:connector-curvature="0"
       id="path228-3"
       style="fill:#000000;fill-opacity:1;fill-rule:nonzero;stroke:none"
       d="m 236.87193,1004.1483 c -0.25021,-0.3299 -0.65142,-0.8201 -0.59281,-1.1777 0.0525,-0.3323 0.5094,-0.6443 1.03753,-0.4196 0.25022,0.1048 0.6392,0.9069 0.81498,1.1765 1.41754,2.1442 3.73956,5.1876 5.11358,7.2294 0.77187,0.7006 1.52827,2.1296 2.74196,2.6058 0.11106,-0.2104 0.14198,-0.511 0.14811,-0.8404 -0.0431,-0.2594 -0.26856,-0.3116 -0.44472,-0.4205 -0.14487,-0.4518 -0.36416,-0.8197 -0.66687,-1.0929 0.0618,-0.3502 -0.14523,-0.3955 -0.14811,-0.6724 -0.41702,-0.6129 -0.67624,-1.6149 -0.88941,-2.2694 -0.0342,-0.1052 -0.10823,-0.126 -0.14812,-0.2524 -1.39559,-4.4238 -2.53522,-8.9663 -3.70542,-13.7015 -0.71325,-2.886 -1.38337,-5.9473 -1.48222,-9.1627 0.44794,-0.2174 0.90773,0.098 1.26005,0.2516 -0.006,2.1511 0.68521,4.7149 0.815,6.4729 -0.0124,0.21 0.16682,0.2031 0.22252,0.3369 0.41669,3.0363 1.52827,6.1498 2.22317,9.0782 1.01562,2.5214 1.6239,6.1468 2.89007,8.658 0.47849,-3.0891 1.19499,-6.3572 1.48222,-9.1629 0.59284,-0.4134 1.20399,-0.2169 1.55593,0.4205 -0.36129,1.6637 -0.49071,3.1731 -0.59281,4.6232 -0.0155,0.2067 -0.14811,0.1019 -0.14811,0.084 -0.0124,0.2732 0.16069,0.2492 0.14811,0.6725 -0.0124,0.3849 -0.15746,0.389 -0.22217,0.6724 -0.0895,0.3927 0.009,1.0122 -0.074,1.429 -0.0431,0.2137 -0.19773,0.3364 -0.22218,0.5045 -0.096,0.6304 0.0863,1.0263 -0.2966,1.0088 -0.0647,0.3922 0.24412,-0.056 0.22217,0.168 -0.0431,0.2034 -0.0647,0.431 -0.29623,0.42 0.26856,1.3066 -0.30558,2.5989 -0.51875,4.1192 -0.12655,-0.01 -0.19163,0.063 -0.22255,0.1684 -0.10173,-0.2104 -0.26531,0.01 -0.37063,0 -0.88582,-0.091 -1.76301,-0.8584 -2.5194,-1.261 -1.68895,-2.0915 -3.3779,-4.1822 -4.81701,-6.5569 -0.78731,-0.9281 -1.42939,-1.9717 -2.29723,-3.1099" />
    <text
       xml:space="preserve"
       style="font-style:normal;font-weight:normal;font-size:40px;line-height:125%;font-family:sans-serif;letter-spacing:0px;word-spacing:0px;fill:#000000;fill-opacity:1;stroke:none;stroke-width:1px;stroke-linecap:butt;stroke-linejoin:miter;stroke-opacity:1;"
       x="6.612391"
       y="1024.9465"
       id="text4470"
       sodipodi:linespacing="125%"><tspan
         sodipodi:role="line"
         id="tspan4472"
         x="6.612391"
         y="1024.9465"
         style="font-style:italic;font-variant:normal;font-weight:normal;font-stretch:normal;font-size:15px;line-height:125%;font-family:'Felt Tip';-inkscape-font-specification:'Felt Tip, Italic';text-align:start;writing-mode:lr-tb;text-anchor:start;fill:#000000;fill-opacity:1;"> yes/no</tspan><tspan
         sodipodi:role="line"
         x="6.612391"
         y="1043.6965"
         style="font-style:italic;font-variant:normal;font-weight:normal;font-stretch:normal;font-size:15px;line-height:125%;font-family:'Felt Tip';-inkscape-font-specification:'Felt Tip, Italic';text-align:start;writing-mode:lr-tb;text-anchor:start;fill:#000000;fill-opacity:1;"
         id="tspan4286">decision</tspan></text>
    <text
       xml:space="preserve"
       style="font-style:normal;font-weight:normal;font-size:40px;line-height:125%;font-family:sans-serif;letter-spacing:0px;word-spacing:0px;fill:#000000;fill-opacity:1;stroke:none;stroke-width:1px;stroke-linecap:butt;stroke-linejoin:miter;stroke-opacity:1"
       x="101.14747"
       y="1024.5228"
       id="text4470-1"
       sodipodi:linespacing="125%"><tspan
         sodipodi:role="line"
         x="101.14747"
         y="1024.5228"
         style="font-style:italic;font-variant:normal;font-weight:normal;font-stretch:normal;font-size:15px;line-height:125%;font-family:'Felt Tip';-inkscape-font-specification:'Felt Tip, Italic';text-align:start;writing-mode:lr-tb;text-anchor:start;fill:#000000;fill-opacity:1"
         id="tspan4282">one stimulus,</tspan><tspan
         sodipodi:role="line"
         x="101.14747"
         y="1043.2728"
         style="font-style:italic;font-variant:normal;font-weight:normal;font-stretch:normal;font-size:15px;line-height:125%;font-family:'Felt Tip';-inkscape-font-specification:'Felt Tip, Italic';text-align:start;writing-mode:lr-tb;text-anchor:start;fill:#000000;fill-opacity:1"
         id="tspan4217">single modality</tspan><tspan
         sodipodi:role="line"
         x="101.14747"
         y="1062.0228"
         style="font-style:italic;font-variant:normal;font-weight:normal;font-stretch:normal;font-size:25px;line-height:125%;font-family:'Felt Tip';-inkscape-font-specification:'Felt Tip, Italic';text-align:start;writing-mode:lr-tb;text-anchor:start;fill:#000000;fill-opacity:1"
         id="tspan4220" /></text>
    <text
       xml:space="preserve"
       style="font-style:normal;font-weight:normal;font-size:40px;line-height:125%;font-family:sans-serif;letter-spacing:0px;word-spacing:0px;fill:#000000;fill-opacity:1;stroke:none;stroke-width:1px;stroke-linecap:butt;stroke-linejoin:miter;stroke-opacity:1"
       x="273.12213"
       y="1031.702"
       id="text4222"
       sodipodi:linespacing="125%"><tspan
         sodipodi:role="line"
         id="tspan4224"
         x="273.12213"
         y="1031.702" /></text>
    <text
       xml:space="preserve"
       style="font-style:normal;font-weight:normal;font-size:40px;line-height:125%;font-family:sans-serif;letter-spacing:0px;word-spacing:0px;fill:#000000;fill-opacity:1;stroke:none;stroke-width:1px;stroke-linecap:butt;stroke-linejoin:miter;stroke-opacity:1"
       x="249.51059"
       y="1060.7625"
       id="text4226"
       sodipodi:linespacing="125%"><tspan
         sodipodi:role="line"
         id="tspan4228"
         x="249.51059"
         y="1060.7625" /></text>
    <text
       xml:space="preserve"
       style="font-style:normal;font-weight:normal;font-size:40px;line-height:125%;font-family:sans-serif;letter-spacing:0px;word-spacing:0px;fill:#000000;fill-opacity:1;stroke:none;stroke-width:1px;stroke-linecap:butt;stroke-linejoin:miter;stroke-opacity:1"
       x="213.00168"
       y="1025.8109"
       id="text4470-1-8"
       sodipodi:linespacing="125%"><tspan
         sodipodi:role="line"
         id="tspan4472-9-4"
         x="213.00168"
         y="1025.8109"
         style="font-style:italic;font-variant:normal;font-weight:normal;font-stretch:normal;font-size:15px;line-height:125%;font-family:'Felt Tip';-inkscape-font-specification:'Felt Tip, Italic';text-align:start;writing-mode:lr-tb;text-anchor:start;fill:#000000;fill-opacity:1">  temporal</tspan><tspan
         sodipodi:role="line"
         x="213.00168"
         y="1044.5609"
         style="font-style:italic;font-variant:normal;font-weight:normal;font-stretch:normal;font-size:15px;line-height:125%;font-family:'Felt Tip';-inkscape-font-specification:'Felt Tip, Italic';text-align:start;writing-mode:lr-tb;text-anchor:start;fill:#000000;fill-opacity:1"
         id="tspan4251">expectations</tspan><tspan
         sodipodi:role="line"
         x="213.00168"
         y="1063.3109"
         style="font-style:italic;font-variant:normal;font-weight:normal;font-stretch:normal;font-size:15px;line-height:125%;font-family:'Felt Tip';-inkscape-font-specification:'Felt Tip, Italic';text-align:start;writing-mode:lr-tb;text-anchor:start;fill:#000000;fill-opacity:1"
         id="tspan4220-3" /></text>
    <rect
       style="fill:#ffffff;fill-opacity:1;stroke:none;stroke-width:1.69213223;stroke-miterlimit:4;stroke-dasharray:none;stroke-opacity:1"
       id="rect4381"
       width="268.1098"
       height="65.561905"
       x="5.086473"
       y="981.84161"
       rx="0"
       ry="0" />
  </g>
</svg>
